<?xml version="1.0" encoding="UTF-8"?>
<!-- Generator: Adobe Illustrator 24.1.0, SVG Export Plug-In . SVG Version: 6.00 Build 0)  -->
<svg version="1.1" id="Layer_1" xmlns="http://www.w3.org/2000/svg" xmlns:xlink="http://www.w3.org/1999/xlink" x="0px" y="0px" viewBox="0 0 500 500" style="enable-background:new 0 0 500 500;" xml:space="preserve">
<style type="text/css">
	.st0{fill:none;stroke:#000000;stroke-width:15;stroke-opacity:0.7;}
	.st1{fill-opacity:0.65;}
</style>
<circle class="st0" cx="249" cy="250" r="242.5"/>
<path class="st1" d="M172.2,167.1c0-3.6,1.3-6.6,4-8.9c2.7-2.5,6-3.7,9.8-3.7h127.6c0,8.1-1.6,14-4.9,17.9  c-3.3,3.8-8.4,5.8-15.3,5.8h-94.2v64.5h80.6c0,8.1-1.6,14-4.9,17.9c-3.3,3.8-8.3,5.8-15,5.8h-60.8v66.2h100.2c6.7,0,11.7,1.9,15,5.8  c3.3,3.8,4.9,9.8,4.9,17.9H186c-3.8,0-7.1-1.2-9.8-3.5c-2.7-2.5-4-5.6-4-9.2V167.1z"/>
</svg>